<svg width="17" height="16" viewBox="0 0 17 16" fill="none" xmlns="http://www.w3.org/2000/svg">
<path d="M15.7927 4.27199C15.6843 4.13575 15.5513 4.0268 15.4026 3.95234C15.2538 3.87787 15.0927 3.83958 14.9297 3.83999H11.5067C11.5067 2.82156 11.1454 1.84485 10.5024 1.12471C9.8594 0.404569 8.98728 0 8.07791 0C7.16854 0 6.29642 0.404569 5.6534 1.12471C5.01038 1.84485 4.64914 2.82156 4.64914 3.83999H1.22608C1.06411 3.84048 0.904059 3.87921 0.756359 3.95364C0.608658 4.02808 0.476629 4.13656 0.368886 4.27199C0.262043 4.40692 0.181866 4.56562 0.13361 4.73768C0.0853536 4.90974 0.0701071 5.09127 0.0888697 5.27039L1.1075 14.8704C1.14054 15.1832 1.27539 15.4713 1.48626 15.6797C1.69712 15.8881 1.9692 16.0022 2.25043 16H13.9118C14.1931 16.0022 14.4651 15.8881 14.676 15.6797C14.8869 15.4713 15.0217 15.1832 15.0548 14.8704L16.0734 5.27039C16.0921 5.09122 16.0767 4.90965 16.0283 4.73758C15.9799 4.56552 15.8996 4.40686 15.7927 4.27199ZM8.07791 1.28C8.68416 1.28 9.26557 1.54971 9.69425 2.0298C10.1229 2.50989 10.3638 3.16104 10.3638 3.83999H5.79206C5.79206 3.16104 6.03289 2.50989 6.46157 2.0298C6.89025 1.54971 7.47167 1.28 8.07791 1.28ZM13.9183 14.72C13.9162 14.7208 13.9139 14.7208 13.9118 14.72H2.23828L1.22608 5.11999H4.64914V7.03999C4.64914 7.20972 4.70935 7.37251 4.81652 7.49253C4.92369 7.61256 5.06904 7.67999 5.2206 7.67999C5.37216 7.67999 5.51752 7.61256 5.62469 7.49253C5.73186 7.37251 5.79206 7.20972 5.79206 7.03999V5.11999H10.3638V7.03999C10.3638 7.20972 10.424 7.37251 10.5311 7.49253C10.6383 7.61256 10.7837 7.67999 10.9352 7.67999C11.0868 7.67999 11.2321 7.61256 11.3393 7.49253C11.4465 7.37251 11.5067 7.20972 11.5067 7.03999V5.11999H14.9355L13.9183 14.72Z" fill="#FDE68A"/>
</svg>
