<svg width="17" height="16" viewBox="0 0 17 16" fill="none" xmlns="http://www.w3.org/2000/svg">
<path d="M10.5528 8.47167L7.21942 11.805C7.15748 11.8669 7.08395 11.9161 7.00302 11.9496C6.92209 11.9831 6.83535 12.0004 6.74775 12.0004C6.66016 12.0004 6.57342 11.9831 6.49249 11.9496C6.41156 11.9161 6.33803 11.8669 6.27608 11.805C6.21414 11.7431 6.16501 11.6695 6.13149 11.5886C6.09797 11.5077 6.08071 11.4209 6.08071 11.3333C6.08071 11.2457 6.09797 11.159 6.13149 11.0781C6.16501 10.9971 6.21414 10.9236 6.27608 10.8617L8.47192 8.66667H0.747752C0.570941 8.66667 0.401372 8.59643 0.276347 8.47141C0.151323 8.34638 0.0810852 8.17681 0.0810852 8C0.0810852 7.82319 0.151323 7.65362 0.276347 7.5286C0.401372 7.40357 0.570941 7.33333 0.747752 7.33333H8.47192L6.27608 5.13833C6.15099 5.01324 6.08071 4.84358 6.08071 4.66667C6.08071 4.48976 6.15099 4.32009 6.27608 4.195C6.40118 4.06991 6.57084 3.99963 6.74775 3.99963C6.92466 3.99963 7.09433 4.06991 7.21942 4.195L10.5528 7.52833C10.6147 7.59025 10.6639 7.66377 10.6975 7.74471C10.731 7.82564 10.7483 7.91239 10.7483 8C10.7483 8.08761 10.731 8.17436 10.6975 8.25529C10.6639 8.33623 10.6147 8.40975 10.5528 8.47167ZM14.7478 0H10.0811C9.90427 0 9.7347 0.070238 9.60968 0.195262C9.48466 0.320287 9.41442 0.489856 9.41442 0.666667C9.41442 0.843478 9.48466 1.01305 9.60968 1.13807C9.7347 1.2631 9.90427 1.33333 10.0811 1.33333H14.7478V14.6667H10.0811C9.90427 14.6667 9.7347 14.7369 9.60968 14.8619C9.48466 14.987 9.41442 15.1565 9.41442 15.3333C9.41442 15.5101 9.48466 15.6797 9.60968 15.8047C9.7347 15.9298 9.90427 16 10.0811 16H14.7478C15.1014 16 15.4405 15.8595 15.6906 15.6095C15.9406 15.3594 16.0811 15.0203 16.0811 14.6667V1.33333C16.0811 0.979711 15.9406 0.640573 15.6906 0.390524C15.4405 0.140476 15.1014 0 14.7478 0Z" fill="#FDE68A"/>
</svg>
