<svg width="238" height="243" viewBox="0 0 238 243" fill="none" xmlns="http://www.w3.org/2000/svg">
<path d="M237.471 3.98471V0H225.541C208.033 0 174.226 3.58983 145.582 27.5304C125.288 44.2877 114.951 65.421 110.171 80.9829C110.171 80.9829 110.171 80.5916 109.777 80.5916C104.21 74.2125 94.657 68.2247 83.5253 64.6348C71.9854 60.6501 62.8409 60.2445 56.4748 59.8532C48.519 59.4583 37.3837 59.8532 16.6993 61.4507C13.9173 61.4507 11.1353 61.8455 9.14453 61.8455L0 62.2368L4.76919 73.0063C7.47116 83.0025 11.3448 92.6426 16.3091 101.725C18.7008 106.115 22.6716 113.295 30.2371 121.666C36.2129 128.046 40.5883 133.233 48.5333 137.218C55.3004 140.412 62.4614 141.999 69.6223 141.999C72.8125 141.999 75.5981 141.604 78.7704 141.199C88.717 139.206 97.4712 134.019 104.632 126.039C105.431 125.242 106.619 124.05 107.819 122.449V124.441C108.617 132.016 109.416 138 113.386 163.538L113.78 167.128C115.374 178.698 116.562 185.472 117.361 189.859C118.156 194.64 116.967 206.21 116.562 208.608C114.969 216.183 111.793 223.363 107.808 230.542C105.416 234.132 106.619 239.316 110.59 241.312C111.779 242.109 113.372 242.5 114.564 242.5C117.346 242.5 119.738 241.308 121.332 238.515C126.505 229.738 130.086 220.566 132.073 211.789C132.871 207.808 134.06 194.64 132.871 187.852C132.073 183.07 131.274 176.286 129.291 164.716L128.897 161.126C124.923 135.196 124.128 130.009 123.723 123.63C133.666 131.61 145.206 132.407 154.354 133.208C156.338 133.208 158.329 133.603 159.918 133.603C188.172 133.603 208.058 117.251 210.045 115.259C218.004 108.474 228.341 96.9146 233.92 78.1685C237.11 67.7939 237.11 51.8479 237.5 17.1414C237.475 11.168 237.475 6.77759 237.475 3.9883L237.471 3.98471ZM85.8884 99.7039C76.3317 96.923 66.3891 95.7108 56.4462 96.114C55.2575 96.114 54.4626 95.3135 54.4626 94.1217C54.4626 92.9299 55.2575 92.1329 56.4462 92.1329C63.6071 91.738 75.147 92.1329 87.4817 95.7227C94.6427 98.1207 101.804 101.301 108.17 105.3V110.082C100.615 105.692 93.454 102.098 85.8884 99.7039ZM167.441 77.77C177.788 68.9929 186.937 59.0275 194.491 47.4539C194.885 47.059 195.286 46.657 195.68 46.657C196.074 46.657 196.475 46.657 197.273 47.0483C198.072 47.8488 198.462 49.0406 197.667 49.8376C190.112 61.4076 180.56 72.1771 169.818 80.9542C156.295 92.1186 140.376 100.896 122.882 106.884C122.882 105.286 122.488 104.094 121.693 102.899C138.797 96.9146 154.322 88.5395 167.441 77.77Z" fill="#417505"/>
</svg>
