<svg width="1168" height="256" viewBox="0 0 1168 256" fill="none" xmlns="http://www.w3.org/2000/svg">
<path d="M0 199.75C0 206.95 1.2 213.675 3.6 219.925C6 226.15 9.35 231.55 13.65 236.1C17.95 240.65 23.125 244.175 29.175 246.675C35.2 249.175 41.825 250.425 49.025 250.425C54.125 250.425 59.65 249.7 65.6 248.25C71.55 246.8 77.1 244.625 82.25 241.725C87.375 238.825 91.65 235.1 95.05 230.55C98.45 226 100.15 220.65 100.15 214.45C100.15 210.45 99.55 207.175 98.35 204.625C97.15 202.075 95.425 200.075 93.175 198.625C90.925 197.175 88.25 196.175 85.175 195.625C82.075 195.075 78.725 194.8 75.125 194.8C73.125 194.8 70.575 194.95 67.475 195.25C64.375 195.55 61.4 196.15 58.55 197.05C55.7 197.95 53.25 199.275 51.2 201.025C49.15 202.775 48.125 205.05 48.125 207.85C48.125 210.75 48.875 212.6 50.375 213.4C51.875 214.2 53.925 214.6 56.525 214.6C58.625 214.6 60.45 214.25 62 213.55C63.55 212.85 65.1 212.05 66.65 211.15C68.2 210.25 69.775 209.45 71.375 208.75C72.975 208.05 74.875 207.7 77.075 207.7C78.475 207.7 79.825 207.725 81.125 207.775C82.425 207.825 83.525 208.075 84.425 208.525C85.325 208.975 86.025 209.675 86.525 210.625C87.025 211.575 87.25 212.9 87.25 214.6C87.25 218.8 85.875 222.325 83.075 225.15C80.275 228 76.85 230.325 72.8 232.125C68.75 233.925 64.525 235.225 60.125 236.025C55.725 236.825 52.025 237.225 49.025 237.225C43.825 237.225 39 236.475 34.55 234.975C30.1 233.475 26.3 231.25 23.1 228.3C19.9 225.35 17.4 221.7 15.6 217.3C13.8 212.9 12.9 207.9 12.9 202.3C12.9 198 13.425 193.575 14.475 189.025C15.525 184.475 17.075 180.025 19.125 175.675C21.175 171.325 23.65 167.2 26.55 163.325C29.425 159.425 32.675 155.975 36.275 152.975C39.875 149.975 43.825 147.625 48.125 145.925C52.425 144.225 56.925 143.375 61.625 143.375C61.825 143.375 62.075 143.4 62.375 143.45C62.675 143.5 62.975 143.525 63.275 143.525C63.675 143.625 64.075 143.675 64.475 143.675C64.975 143.875 66.175 144.45 68.075 145.4L74.225 148.475L80.375 151.55C82.275 152.5 83.475 153.125 83.975 153.425C84.175 153.525 84.375 153.575 84.575 153.575C84.775 153.675 85.075 153.725 85.475 153.725C85.775 153.725 86.075 153.675 86.375 153.575C86.675 153.575 86.925 153.525 87.125 153.425C87.4 153.225 87.95 152.7 88.75 151.85C89.55 151 90.05 150.425 90.25 150.125C90.25 149.925 90.3 149.725 90.4 149.525C90.4 149.325 90.425 149.15 90.475 149C90.525 148.85 90.55 148.675 90.55 148.475C90.55 145.775 89.325 143.45 86.9 141.5C84.45 139.55 81.5 137.975 78.05 136.775C74.6 135.575 71.05 134.725 67.4 134.225C63.75 133.725 60.775 133.475 58.475 133.475C53.175 133.475 48.05 134.4 43.1 136.25C38.15 138.1 33.5 140.65 29.175 143.9C24.825 147.15 20.875 150.975 17.325 155.375C13.775 159.775 10.725 164.425 8.175 169.3C5.625 174.2 3.625 179.25 2.175 184.45C0.725 189.65 0 194.75 0 199.75ZM121.2 147.125C121.2 151.225 121.425 156.35 121.875 162.5C122.325 168.625 123.075 175.225 124.125 182.275C125.175 189.325 126.525 196.5 128.175 203.8C129.825 211.1 131.85 218 134.25 224.475C136.65 230.975 139.475 236.75 142.725 241.8C145.975 246.85 149.65 250.575 153.75 252.975C154.85 252.675 155.65 252.125 156.15 251.325C156.65 250.525 156.95 249.625 157.05 248.625C157.15 247.625 157.2 246.65 157.2 245.7V243.225C157.2 240.025 156.975 237.05 156.525 234.3C156.075 231.55 155.425 228.825 154.575 226.125C153.725 223.45 152.675 220.65 151.425 217.75C150.175 214.85 148.75 211.55 147.15 207.85H151.95C157.95 207.85 163.725 209.05 169.25 211.45C174.8 213.85 180.275 216.5 185.675 219.4C191.075 222.3 196.45 224.9 201.8 227.25C207.15 229.6 212.525 230.775 217.925 230.775H219.725C220.425 230.775 221.125 230.65 221.825 230.4C222.525 230.15 223.125 229.8 223.625 229.35C224.125 228.9 224.375 228.225 224.375 227.325C224.375 226.925 224.225 226.425 223.925 225.825C223.625 225.225 223.325 224.55 223.025 223.825C222.725 223.075 222.4 222.425 222.05 221.875C221.7 221.325 221.375 220.95 221.075 220.75C210.275 214.95 199.3 209.55 188.15 204.55C177 199.55 165.55 195.3 153.75 191.8C153.75 191.7 153.675 191.475 153.525 191.125C153.375 190.775 153.3 190.5 153.3 190.3C153.3 187.6 154.2 185.1 156 182.8C157.8 180.5 160.025 178.25 162.675 176.05C165.325 173.85 168.2 171.6 171.35 169.3C174.5 167 177.4 164.55 180.05 161.9C182.7 159.25 184.925 156.4 186.725 153.35C188.525 150.3 189.425 146.875 189.425 143.075C189.425 139.875 188.75 137.1 187.4 134.75C186.05 132.4 184.25 130.4 182 128.75C179.75 127.1 177.175 125.75 174.275 124.7C171.375 123.65 168.45 122.85 165.525 122.3C162.575 121.75 159.625 121.375 156.675 121.175C153.725 120.975 151.15 120.875 148.95 120.875C147.25 120.875 145.075 120.825 142.425 120.725C139.775 120.625 137.075 120.75 134.325 121.1C131.575 121.45 129.025 122.1 126.675 123.05C124.325 124 122.6 125.525 121.5 127.625C121.5 128.325 121.475 129.6 121.425 131.45C121.375 133.3 121.35 135.25 121.35 137.3C121.35 139.35 121.325 141.3 121.275 143.15C121.225 145 121.2 146.325 121.2 147.125ZM134.1 156.575C134.1 155.875 134.125 154.775 134.175 153.275C134.225 151.775 134.25 150.15 134.25 148.4V143.525V140.375C134.95 138.575 136.2 137.225 138 136.325C139.8 135.425 141.825 134.8 144.075 134.45C146.325 134.1 148.6 133.95 150.9 134C153.2 134.05 155.2 134.075 156.9 134.075C158.3 134.075 160.125 134.275 162.375 134.675C164.625 135.075 166.8 135.725 168.875 136.625C170.975 137.525 172.775 138.7 174.275 140.15C175.775 141.6 176.525 143.325 176.525 145.325C176.525 147.425 175.85 149.75 174.5 152.3C173.15 154.85 171.375 157.375 169.175 159.875C167 162.375 164.525 164.8 161.775 167.125C159.025 169.475 156.25 171.55 153.45 173.35C150.65 175.15 147.975 176.6 145.425 177.7C142.875 178.8 140.7 179.35 138.9 179.35C138.5 179.35 138.25 179.3 138.15 179.2C137.95 179.2 137.75 179.15 137.55 179.05C136.25 177.65 135.325 175.975 134.775 174.025C134.225 172.075 133.9 170.025 133.8 167.875C133.7 165.75 133.725 163.65 133.875 161.6C134.025 159.55 134.1 157.875 134.1 156.575ZM252.45 134.075C252.55 135.775 252.675 138.8 252.825 143.15C252.975 147.5 253.25 152.625 253.65 158.525C254.05 164.425 254.575 170.825 255.225 177.775C255.875 184.725 256.725 191.7 257.775 198.7C258.825 205.7 260.05 212.5 261.45 219.1C262.85 225.675 264.6 231.5 266.7 236.55C268.8 241.6 271.175 245.65 273.825 248.7C276.475 251.75 279.5 253.275 282.9 253.275C285.3 253.275 288.275 252.525 291.825 251.025C295.375 249.525 299.1 247.65 303 245.4C306.9 243.15 310.775 240.675 314.675 237.975C318.575 235.275 322.1 232.725 325.25 230.325C328.4 227.925 330.95 225.825 332.9 224.025C334.85 222.25 335.825 221.15 335.825 220.75V213.4C331.525 213.4 327.375 214.225 323.375 215.875C319.375 217.525 315.525 219.525 311.825 221.875C308.125 224.2 304.575 226.725 301.125 229.425C297.675 232.125 294.25 234.625 290.85 236.925C290.65 236.925 290.15 236.975 289.35 237.075C288.55 237.175 288.05 237.225 287.85 237.225C286.05 237.225 284.525 236.45 283.275 234.9C282.025 233.35 280.9 231.4 279.9 229.05C278.9 226.7 278.1 224.125 277.5 221.35C276.9 218.55 276.425 215.825 276.075 213.175C275.725 210.525 275.45 208.1 275.25 205.9C275.05 203.7 274.95 202.15 274.95 201.25C274.95 198.55 275.425 196.35 276.375 194.65C277.325 192.95 278.6 191.65 280.2 190.75C281.8 189.85 283.675 189.25 285.825 188.95C287.975 188.65 290.2 188.5 292.5 188.5C293 188.5 293.675 188.525 294.525 188.575C295.375 188.625 296.25 188.65 297.15 188.65C298.05 188.65 298.825 188.675 299.475 188.725C300.125 188.775 300.5 188.8 300.6 188.8C300.9 188.8 301.5 188.95 302.4 189.25C303.3 189.55 304.275 189.9 305.325 190.3C306.375 190.7 307.35 191.05 308.3 191.35C309.25 191.65 309.875 191.8 310.175 191.8C313.075 191.8 314.925 191.3 315.725 190.3C316.525 189.3 316.925 187.8 316.925 185.8C316.925 183 316.075 180.9 314.375 179.5C312.675 178.1 310.6 177.1 308.15 176.5C305.725 175.9 303.2 175.6 300.6 175.6H294.15C290.25 175.6 286.4 175.65 282.6 175.75C278.8 175.85 275.15 176.95 271.65 179.05C269.85 176.35 268.725 173.025 268.275 169.075C267.825 165.15 267.725 161.175 267.975 157.175C268.225 153.175 268.575 149.375 269.025 145.775C269.475 142.175 269.7 139.475 269.7 137.675C274 137.675 278.275 137.825 282.525 138.125C286.775 138.425 291 138.725 295.2 139.025C299.4 139.325 303.625 139.625 307.85 139.925C312.1 140.225 316.325 140.375 320.525 140.375H323.3C324.05 140.375 324.775 140.15 325.475 139.7C326.175 139.25 326.825 138.6 327.425 137.75C328.025 136.9 328.725 135.675 329.525 134.075C329.025 132.975 328.225 132.05 327.125 131.3C326.025 130.55 324.825 129.9 323.525 129.35C322.225 128.8 320.95 128.4 319.7 128.15C318.45 127.9 317.425 127.725 316.625 127.625C316.225 127.625 314.85 127.5 312.5 127.25C310.15 127 307.25 126.65 303.825 126.2C300.375 125.75 296.525 125.3 292.275 124.85C288.025 124.4 283.825 123.95 279.675 123.5C275.525 123.05 271.6 122.625 267.9 122.225C264.2 121.825 261.15 121.525 258.75 121.325H257.25H255.45C254.65 121.425 253.55 121.65 252.15 122C250.75 122.35 249.325 122.85 247.9 123.5C246.45 124.15 245.175 124.975 244.075 125.975C242.975 126.975 242.425 128.175 242.425 129.575C242.425 129.875 242.475 130.125 242.575 130.325C242.575 130.525 242.625 130.725 242.725 130.925C243.025 131.125 243.625 131.4 244.525 131.75C245.425 132.1 246.375 132.45 247.375 132.8C248.375 133.15 249.325 133.45 250.275 133.7C251.225 133.95 251.95 134.075 252.45 134.075ZM367.375 134.075C367.475 135.775 367.6 138.8 367.75 143.15C367.9 147.5 368.175 152.625 368.575 158.525C368.975 164.425 369.5 170.825 370.15 177.775C370.8 184.725 371.65 191.7 372.7 198.7C373.75 205.7 374.975 212.5 376.375 219.1C377.775 225.675 379.525 231.5 381.625 236.55C383.725 241.6 386.1 245.65 388.725 248.7C391.375 251.75 394.4 253.275 397.8 253.275C400.2 253.275 403.175 252.525 406.725 251.025C410.275 249.525 414 247.65 417.9 245.4C421.8 243.15 425.7 240.675 429.6 237.975C433.5 235.275 437.025 232.725 440.175 230.325C443.325 227.925 445.875 225.825 447.8 224.025C449.75 222.25 450.725 221.15 450.725 220.75V213.4C446.45 213.4 442.3 214.225 438.3 215.875C434.3 217.525 430.45 219.525 426.75 221.875C423.05 224.2 419.475 226.725 416.025 229.425C412.575 232.125 409.15 234.625 405.75 236.925C405.55 236.925 405.05 236.975 404.25 237.075C403.45 237.175 402.95 237.225 402.75 237.225C400.95 237.225 399.425 236.45 398.175 234.9C396.925 233.35 395.8 231.4 394.8 229.05C393.8 226.7 393 224.125 392.4 221.35C391.8 218.55 391.325 215.825 390.975 213.175C390.625 210.525 390.35 208.1 390.15 205.9C389.95 203.7 389.85 202.15 389.85 201.25C389.85 198.55 390.325 196.35 391.275 194.65C392.225 192.95 393.5 191.65 395.1 190.75C396.7 189.85 398.575 189.25 400.725 188.95C402.875 188.65 405.1 188.5 407.4 188.5C407.9 188.5 408.575 188.525 409.425 188.575C410.275 188.625 411.15 188.65 412.05 188.65C412.95 188.65 413.725 188.675 414.375 188.725C415.025 188.775 415.4 188.8 415.5 188.8C415.8 188.8 416.4 188.95 417.3 189.25C418.2 189.55 419.175 189.9 420.225 190.3C421.275 190.7 422.275 191.05 423.225 191.35C424.175 191.65 424.8 191.8 425.1 191.8C428 191.8 429.85 191.3 430.65 190.3C431.45 189.3 431.85 187.8 431.85 185.8C431.85 183 431 180.9 429.3 179.5C427.6 178.1 425.525 177.1 423.075 176.5C420.625 175.9 418.1 175.6 415.5 175.6H409.05C405.15 175.6 401.3 175.65 397.5 175.75C393.7 175.85 390.05 176.95 386.575 179.05C384.775 176.35 383.65 173.025 383.2 169.075C382.75 165.15 382.65 161.175 382.9 157.175C383.15 153.175 383.5 149.375 383.95 145.775C384.4 142.175 384.625 139.475 384.625 137.675C388.9 137.675 393.175 137.825 397.425 138.125C401.675 138.425 405.9 138.725 410.1 139.025C414.3 139.325 418.525 139.625 422.775 139.925C427.025 140.225 431.25 140.375 435.45 140.375H438.225C438.975 140.375 439.7 140.15 440.4 139.7C441.1 139.25 441.75 138.6 442.35 137.75C442.95 136.9 443.65 135.675 444.45 134.075C443.95 132.975 443.15 132.05 442.05 131.3C440.95 130.55 439.75 129.9 438.45 129.35C437.15 128.8 435.875 128.4 434.625 128.15C433.375 127.9 432.35 127.725 431.55 127.625C431.15 127.625 429.775 127.5 427.425 127.25C425.075 127 422.175 126.65 418.725 126.2C415.275 125.75 411.425 125.3 407.175 124.85C402.925 124.4 398.725 123.95 394.575 123.5C390.425 123.05 386.525 122.625 382.825 122.225C379.125 121.825 376.075 121.525 373.675 121.325H372.175H370.375C369.575 121.425 368.475 121.65 367.075 122C365.675 122.35 364.25 122.85 362.8 123.5C361.35 124.15 360.075 124.975 358.975 125.975C357.875 126.975 357.325 128.175 357.325 129.575C357.325 129.875 357.375 130.125 357.475 130.325C357.475 130.525 357.525 130.725 357.625 130.925C357.925 131.125 358.525 131.4 359.425 131.75C360.325 132.1 361.275 132.45 362.275 132.8C363.275 133.15 364.25 133.45 365.2 133.7C366.15 133.95 366.875 134.075 367.375 134.075ZM482.275 246.525C482.875 248.325 483.75 249.35 484.9 249.6C486.05 249.85 487.275 249.975 488.575 249.975C490.175 249.975 491.65 249.625 493 248.925C494.35 248.225 495.025 246.925 495.025 245.025C495.025 239.825 494.625 234.7 493.825 229.65C493.025 224.6 492.15 219.55 491.2 214.45C490.25 209.35 489.375 204.225 488.575 199.075C487.775 193.925 487.375 188.55 487.375 182.95C492.475 182.95 497.25 184.15 501.7 186.55C506.15 188.95 510.45 191.9 514.6 195.4C518.75 198.9 522.8 202.75 526.75 206.95C530.675 211.15 534.725 215 538.875 218.5C543.025 222 547.3 224.9 551.7 227.25C556.1 229.6 560.9 230.775 566.1 230.775C567.7 230.775 568.9 230.325 569.7 229.425C570.5 228.525 571.075 227.4 571.425 226.05C571.775 224.7 571.975 223.3 572.025 221.8C572.075 220.3 572.1 218.9 572.1 217.6C572.1 210.5 571.525 203.325 570.375 196.075C569.225 188.825 567.9 181.575 566.4 174.325C564.9 167.075 563.45 159.85 562.05 152.6C560.65 145.35 559.75 138.125 559.35 130.925C559.05 129.825 558.45 129 557.55 128.45C556.65 127.9 555.65 127.5 554.55 127.25C553.45 127 552.375 126.85 551.325 126.8C550.275 126.75 549.4 126.725 548.7 126.725C548.7 133.125 549.1 139.35 549.9 145.4C550.7 151.45 551.6 157.475 552.6 163.475C553.6 169.45 554.5 175.45 555.3 181.45C556.1 187.45 556.5 193.6 556.5 199.9C556.5 200.4 556.475 201.175 556.425 202.225C556.375 203.275 556.35 204.4 556.35 205.6C556.35 206.8 556.325 207.925 556.275 208.975C556.225 210.025 556.2 210.8 556.2 211.3C551.8 209.9 547.65 207.825 543.75 205.075C539.85 202.325 536.025 199.25 532.275 195.85C528.525 192.45 524.825 188.95 521.125 185.35C517.425 181.75 513.625 178.5 509.725 175.6C505.825 172.7 501.725 170.3 497.425 168.4C493.125 166.5 488.575 165.575 483.775 165.575C483.475 165.575 482.95 165.6 482.2 165.65C481.45 165.7 480.65 165.775 479.8 165.875C478.95 165.975 478.15 166.025 477.4 166.025C476.65 166.025 476.125 166.075 475.825 166.15C475.525 166.95 475.2 168.4 474.85 170.5L473.725 177.25C473.325 179.65 473.025 181.95 472.825 184.15C472.625 186.35 472.525 187.9 472.525 188.8C472.525 190.8 472.7 193.375 473.05 196.525C473.4 199.675 473.875 203.125 474.475 206.875C475.075 210.625 475.725 214.475 476.425 218.425C477.125 222.375 477.85 226.125 478.6 229.725C479.35 233.325 480.05 236.625 480.7 239.625C481.35 242.625 481.875 244.925 482.275 246.525ZM594.05 151.325C594.05 153.025 594.35 155.725 594.95 159.425C595.55 163.125 596.425 167.4 597.575 172.3C598.725 177.2 600 182.55 601.4 188.35C602.8 194.15 604.3 199.925 605.9 205.675C607.5 211.425 609.1 216.975 610.75 222.325C612.4 227.65 614 232.375 615.55 236.475C617.1 240.575 618.5 243.85 619.75 246.3C621 248.75 622.075 249.975 622.975 249.975C627.575 249.975 631.8 248.675 635.65 246.075C639.5 243.475 642.975 240.05 646.075 235.8C649.175 231.55 651.9 226.75 654.25 221.425C656.6 216.075 658.575 210.675 660.175 205.225C661.775 199.775 662.975 194.475 663.775 189.325C664.575 184.175 664.975 179.7 664.975 175.9C664.975 170.2 664.375 164.625 663.175 159.125C661.975 153.625 660 148.775 657.25 144.575C654.5 140.375 650.9 137 646.45 134.45C642 131.9 636.525 130.625 630.025 130.625C626.625 130.625 622.825 130.9 618.625 131.45C614.425 132 610.5 133.05 606.875 134.6C603.225 136.15 600.175 138.275 597.725 140.975C595.275 143.675 594.05 147.125 594.05 151.325ZM606.5 159.875C606.5 159.475 606.525 158.8 606.575 157.85C606.625 156.9 606.65 155.9 606.65 154.85C606.65 153.8 606.675 152.825 606.725 151.925C606.775 151.025 606.8 150.425 606.8 150.125C610.275 148.125 613.9 146.5 617.65 145.25C621.4 144 625.275 143.375 629.275 143.375C634.175 143.375 638.125 144.3 641.125 146.15C644.125 148 646.45 150.45 648.1 153.5C649.75 156.55 650.825 160.025 651.325 163.925C651.825 167.8 652.075 171.8 652.075 175.9C652.075 181.6 651.7 186.6 650.95 190.9C650.2 195.2 649.025 199.25 647.425 203.05C645.825 206.85 643.775 210.65 641.275 214.45C638.775 218.25 635.825 222.55 632.425 227.325C629.425 225.525 626.725 223.075 624.325 219.925C621.925 216.775 619.775 213.25 617.875 209.35C615.975 205.45 614.3 201.275 612.85 196.825C611.4 192.375 610.2 187.95 609.25 183.55C608.3 179.15 607.625 174.9 607.175 170.8C606.725 166.725 606.5 163.075 606.5 159.875ZM718.55 121.325C714.85 125.825 711.425 131.55 708.275 138.5C705.125 145.45 702.275 152.975 699.725 161.075C697.175 169.15 695 177.55 693.2 186.25C691.4 194.95 689.875 203.275 688.65 211.225C687.4 219.175 686.55 226.425 686.1 233.025C685.65 239.625 685.6 244.9 685.95 248.85C686.3 252.8 687 255.1 688.05 255.75C689.1 256.4 690.525 254.825 692.375 251.025C694.225 247.225 696.525 240.825 699.275 231.825C702.025 222.85 705.2 210.6 708.8 195.1H710.45C718.25 196.1 725.675 197.125 732.725 198.175C739.775 199.225 746.8 200.35 753.775 201.55C754.275 202.85 755.125 205 756.325 208C757.525 211 758.8 214.2 760.15 217.6C761.5 221 762.8 224.225 764.05 227.325C765.3 230.425 766.125 232.525 766.525 233.625C766.925 234.425 767.375 235.375 767.875 236.475C768.375 237.575 768.925 238.675 769.525 239.775C770.125 240.875 770.85 241.8 771.7 242.55C772.55 243.3 773.575 243.675 774.775 243.675C776.675 243.675 778 242.95 778.75 241.5C779.5 240.05 779.875 238.525 779.875 236.925C779.875 235.325 779.375 232.375 778.375 228.075C777.375 223.8 775.95 218.725 774.1 212.875C772.25 207.025 770.075 200.6 767.575 193.6C765.075 186.6 762.4 179.575 759.55 172.525C756.7 165.5 753.75 158.675 750.7 152.075C747.65 145.475 744.65 139.625 741.65 134.525C738.65 129.425 735.725 125.35 732.875 122.3C730.025 119.25 727.45 117.725 725.15 117.725C723.65 117.725 722.325 117.875 721.175 118.175C720.025 118.475 719.15 119.525 718.55 121.325ZM714.95 174.1C714.95 173.7 715 172.875 715.1 171.625C715.2 170.375 715.25 169.6 715.25 169.3C715.75 167.1 716.5 164.275 717.5 160.775C718.5 157.275 719.625 153.7 720.875 150.05C722.125 146.4 723.375 143.1 724.625 140.15C725.875 137.2 727.05 135.175 728.15 134.075C730.05 137.575 732.125 141.5 734.375 145.85C736.625 150.2 738.75 154.675 740.75 159.275C742.75 163.875 744.4 168.475 745.7 173.125C747 177.775 747.625 182.1 747.625 186.1C744.95 186.1 741.725 186.15 737.975 186.25C734.225 186.35 730.65 186.15 727.25 185.65C723.85 185.15 720.95 184.025 718.55 182.275C716.15 180.525 714.95 177.8 714.95 174.1ZM852.8 169.3C852.6 176.1 852.975 183.275 853.925 190.825C854.875 198.375 856.35 205.85 858.35 213.25C860.35 220.65 862.75 227.75 865.55 234.6C868.35 241.45 871.6 247.575 875.3 252.975C877.1 253.475 878.475 253.425 879.425 252.825C880.375 252.225 881.025 251.375 881.375 250.275C881.725 249.175 881.9 248 881.9 246.75V243.675C881.9 237.875 881.05 232.2 879.35 226.65C877.65 221.125 875.8 215.575 873.8 210.025C871.8 204.475 869.925 198.9 868.175 193.3C866.425 187.7 865.55 181.9 865.55 175.9C865.55 174 866.1 171.4 867.2 168.1C868.3 164.825 869.725 161.075 871.475 156.875C873.225 152.675 875.2 148.2 877.4 143.45C879.6 138.7 881.8 133.925 884 129.125C886.175 124.325 888.275 119.7 890.275 115.25C892.275 110.8 893.95 106.775 895.3 103.125C896.65 99.475 897.6 96.425 898.15 93.975C898.7 91.525 898.575 89.9 897.775 89.1L891.325 82.5C888.525 83.8 886.075 86.1 883.925 89.4C881.775 92.7 879.725 96.55 877.775 100.95C875.825 105.35 873.95 110.075 872.15 115.175C870.35 120.275 868.5 125.225 866.6 130.025C864.7 134.825 862.625 139.3 860.375 143.45C858.125 147.6 855.6 150.925 852.8 153.425C852.6 153.425 852.325 153.475 851.975 153.575C851.625 153.675 851.35 153.725 851.15 153.725C848.05 153.725 845.3 152.85 842.9 151.1C840.5 149.35 838.375 147.025 836.525 144.125C834.675 141.225 833 137.925 831.5 134.225C830 130.525 828.575 126.775 827.25 122.975C825.9 119.175 824.575 115.425 823.275 111.725C821.975 108.05 820.575 104.75 819.075 101.85C817.575 98.95 815.925 96.625 814.125 94.875C812.325 93.125 810.175 92.25 807.675 92.25C806.875 92.25 806.225 92.475 805.725 92.925C805.225 93.375 804.9 93.925 804.75 94.575C804.6 95.225 804.5 95.9 804.45 96.6C804.4 97.3 804.375 97.9 804.375 98.4C804.375 102.1 805.025 106.3 806.325 110.975C807.625 115.675 809.425 120.525 811.725 125.525C814.025 130.525 816.75 135.475 819.9 140.375C823.05 145.275 826.4 149.725 829.925 153.725C833.475 157.725 837.2 161.125 841.1 163.925C845 166.7 848.9 168.5 852.8 169.3Z" fill="black"/>
<path d="M1167.47 3.98471V0H1155.54C1138.03 0 1104.23 3.58983 1075.58 27.5304C1055.29 44.2877 1044.95 65.421 1040.17 80.9829C1040.17 80.9829 1040.17 80.5916 1039.78 80.5916C1034.21 74.2125 1024.66 68.2247 1013.53 64.6348C1001.99 60.6501 992.841 60.2445 986.475 59.8532C978.519 59.4583 967.384 59.8532 946.699 61.4507C943.917 61.4507 941.135 61.8455 939.145 61.8455L930 62.2368L934.769 73.0063C937.471 83.0025 941.345 92.6426 946.309 101.725C948.701 106.115 952.672 113.295 960.237 121.666C966.213 128.046 970.588 133.233 978.533 137.218C985.3 140.412 992.461 141.999 999.622 141.999C1002.81 141.999 1005.6 141.604 1008.77 141.199C1018.72 139.206 1027.47 134.019 1034.63 126.039C1035.43 125.242 1036.62 124.05 1037.82 122.449V124.441C1038.62 132.016 1039.42 138 1043.39 163.538L1043.78 167.128C1045.37 178.698 1046.56 185.472 1047.36 189.859C1048.16 194.64 1046.97 206.21 1046.56 208.608C1044.97 216.183 1041.79 223.363 1037.81 230.542C1035.42 234.132 1036.62 239.316 1040.59 241.312C1041.78 242.109 1043.37 242.5 1044.56 242.5C1047.35 242.5 1049.74 241.308 1051.33 238.515C1056.51 229.738 1060.09 220.566 1062.07 211.789C1062.87 207.808 1064.06 194.64 1062.87 187.852C1062.07 183.07 1061.27 176.286 1059.29 164.716L1058.9 161.126C1054.92 135.196 1054.13 130.009 1053.72 123.63C1063.67 131.61 1075.21 132.407 1084.35 133.208C1086.34 133.208 1088.33 133.603 1089.92 133.603C1118.17 133.603 1138.06 117.251 1140.04 115.259C1148 108.474 1158.34 96.9146 1163.92 78.1685C1167.11 67.7939 1167.11 51.8479 1167.5 17.1414C1167.47 11.168 1167.47 6.77759 1167.47 3.9883L1167.47 3.98471ZM1015.89 99.7039C1006.33 96.923 996.389 95.7108 986.446 96.114C985.257 96.114 984.463 95.3135 984.463 94.1217C984.463 92.9299 985.257 92.1329 986.446 92.1329C993.607 91.738 1005.15 92.1329 1017.48 95.7227C1024.64 98.1207 1031.8 101.301 1038.17 105.3V110.082C1030.61 105.692 1023.45 102.098 1015.89 99.7039ZM1097.44 77.77C1107.79 68.9929 1116.94 59.0275 1124.49 47.4539C1124.89 47.059 1125.29 46.657 1125.68 46.657C1126.07 46.657 1126.47 46.657 1127.27 47.0483C1128.07 47.8488 1128.46 49.0406 1127.67 49.8376C1120.11 61.4076 1110.56 72.1771 1099.82 80.9542C1086.29 92.1186 1070.38 100.896 1052.88 106.884C1052.88 105.286 1052.49 104.094 1051.69 102.899C1068.8 96.9146 1084.32 88.5395 1097.44 77.77Z" fill="#417505"/>
</svg>
