<svg width="32" height="32" viewBox="0 0 32 32" fill="none" xmlns="http://www.w3.org/2000/svg">
<path d="M23.8199 22.95L19.9725 19.1034C21.0876 17.7647 21.6437 16.0475 21.525 14.3092C21.4063 12.5709 20.622 10.9452 19.3353 9.77045C18.0486 8.59565 16.3584 7.96216 14.6165 8.00175C12.8746 8.04134 11.215 8.75096 9.98299 9.98299C8.75096 11.215 8.04134 12.8746 8.00175 14.6165C7.96216 16.3584 8.59565 18.0486 9.77045 19.3353C10.9452 20.622 12.5709 21.4063 14.3092 21.525C16.0475 21.6437 17.7647 21.0876 19.1034 19.9725L22.95 23.8199C23.0071 23.877 23.0749 23.9223 23.1496 23.9532C23.2242 23.9841 23.3042 24 23.3849 24C23.4657 24 23.5457 23.9841 23.6203 23.9532C23.6949 23.9223 23.7627 23.877 23.8199 23.8199C23.877 23.7627 23.9223 23.6949 23.9532 23.6203C23.9841 23.5457 24 23.4657 24 23.3849C24 23.3042 23.9841 23.2242 23.9532 23.1496C23.9223 23.0749 23.877 23.0071 23.8199 22.95ZM9.24642 14.7789C9.24642 13.6847 9.57089 12.615 10.1788 11.7052C10.7867 10.7954 11.6508 10.0863 12.6617 9.66755C13.6726 9.24882 14.785 9.13925 15.8582 9.35273C16.9314 9.5662 17.9172 10.0931 18.6909 10.8668C19.4647 11.6406 19.9916 12.6264 20.205 13.6996C20.4185 14.7727 20.309 15.8851 19.8902 16.8961C19.4715 17.907 18.7624 18.771 17.8526 19.379C16.9427 19.9869 15.8731 20.3113 14.7789 20.3113C13.3121 20.3097 11.9058 19.7263 10.8686 18.6891C9.83145 17.6519 9.24805 16.2457 9.24642 14.7789Z" fill="black" fill-opacity="0.85"/>
</svg>
