<svg xmlns="http://www.w3.org/2000/svg" version="1.1" xlink="http://www.w3.org/1999/xlink" xmlns:svgjs="http://svgjs.com/svgjs" width="100%" height="100%" viewBox="3.6100001335144043 -87.93000030517578 294.6100158691406 91.77000427246094"><g fill="#4f4f4f"><path d="M44.92 -84.54C43.57 -85.14 42.4 -85.63 41.43 -86.01C40.45 -86.39 39.47 -86.69 38.49 -86.91C37.51 -87.14 36.48 -87.31 35.39 -87.42C34.3 -87.54 33 -87.67 31.49 -87.82C28.18 -88.12 24.89 -87.78 21.62 -86.8C18.34 -85.82 15.39 -84.28 12.75 -82.17C9.52 -79.69 7.19 -76.7 5.76 -73.2C4.33 -69.7 3.61 -65.96 3.61 -61.97C3.61 -57.98 4.27 -54.11 5.59 -50.34C6.9 -46.58 9.33 -43.53 12.87 -41.2C14.67 -40 16.37 -39.11 17.95 -38.55C19.53 -37.98 21.07 -37.59 22.58 -37.36C24.08 -37.14 25.68 -37.04 27.37 -37.08C29.07 -37.12 30.93 -37.14 32.96 -37.14C40.79 -37.14 46.6 -38.98 50.4 -42.67C54.2 -46.35 56.32 -51.96 56.78 -59.49C57.23 -65.35 56.49 -70.4 54.58 -74.61C52.66 -78.82 49.44 -82.14 44.92 -84.54ZM11.74 -13.55C11.74 -9.78 12.74 -6.77 14.73 -4.52C16.72 -2.26 19.41 -0.51 22.8 0.73C26.19 1.98 30.18 2.8 34.77 3.22C39.36 3.63 44.25 3.84 49.44 3.84C54.63 3.84 59.52 3.63 64.11 3.22C68.7 2.8 72.69 1.98 76.08 0.73C79.46 -0.51 82.15 -2.26 84.15 -4.52C86.14 -6.77 87.14 -9.78 87.14 -13.55C87.14 -17.38 86.14 -20.43 84.15 -22.69C82.15 -24.95 79.46 -26.7 76.08 -27.94C72.69 -29.18 68.7 -29.99 64.11 -30.36C59.52 -30.74 54.63 -30.93 49.44 -30.93C44.25 -30.93 39.36 -30.66 34.77 -30.14C30.18 -29.61 26.19 -28.69 22.8 -27.37C19.41 -26.06 16.72 -24.27 14.73 -22.01C12.74 -19.75 11.74 -16.93 11.74 -13.55ZM70.1 -44.7L72.69 -44.7C72.69 -44.32 72.73 -43.8 72.8 -43.12C72.88 -42.44 72.96 -41.75 73.03 -41.03C73.11 -40.32 73.22 -39.62 73.37 -38.94C73.52 -38.26 73.71 -37.7 73.93 -37.25C74.31 -36.42 74.95 -35.71 75.85 -35.1C77.06 -34.28 78.3 -33.86 79.58 -33.86C80.18 -33.86 80.86 -33.94 81.61 -34.09C82.36 -34.24 83 -34.46 83.53 -34.77C84.28 -35.22 84.83 -36.03 85.16 -37.19C85.5 -38.36 85.75 -39.54 85.9 -40.75C86.05 -41.95 86.12 -43.04 86.12 -44.02L86.12 -45.49L86.12 -77.88C86.12 -78.86 86.14 -79.84 86.18 -80.82C86.22 -81.8 86.09 -82.74 85.79 -83.64C85.56 -84.24 85.18 -84.88 84.66 -85.56C83.3 -87.06 81.68 -87.7 79.8 -87.48C79.05 -87.4 78.26 -87.29 77.43 -87.14C76.6 -86.99 75.89 -86.69 75.29 -86.24C74.54 -85.63 74.03 -84.94 73.76 -84.15C73.5 -83.36 73.33 -82.51 73.26 -81.61C73.18 -80.71 73.16 -79.8 73.2 -78.9C73.24 -78 73.18 -77.17 73.03 -76.42C73.03 -76.27 72.73 -76.17 72.13 -76.13C71.53 -76.1 70.85 -76.08 70.1 -76.08L68.01 -76.08L66.94 -76.08C65.73 -76 64.7 -75.65 63.83 -75.01C62.97 -74.37 62.29 -73.58 61.8 -72.64C61.31 -71.69 61.07 -70.68 61.07 -69.59C61.07 -68.5 61.37 -67.46 61.97 -66.48C62.34 -65.81 62.87 -65.28 63.55 -64.9C64.23 -64.53 64.96 -64.23 65.75 -64C66.54 -63.77 67.33 -63.62 68.12 -63.55C68.91 -63.47 69.57 -63.44 70.1 -63.44L72.69 -63.44L72.69 -59.94C72.69 -59.18 72.73 -58.39 72.8 -57.57L69.42 -57.57C68.52 -57.57 67.63 -57.53 66.77 -57.45C65.9 -57.38 65.32 -57.3 65.02 -57.23C64.11 -56.85 63.32 -56.34 62.65 -55.7C61.97 -55.06 61.55 -54.33 61.4 -53.5C61.33 -53.2 61.27 -52.79 61.24 -52.26C61.2 -51.73 61.2 -51.19 61.24 -50.62C61.27 -50.06 61.35 -49.51 61.46 -48.99C61.57 -48.46 61.74 -48.05 61.97 -47.75C62.34 -47.07 62.87 -46.54 63.55 -46.17C64.23 -45.79 64.96 -45.49 65.75 -45.26C66.54 -45.04 67.33 -44.89 68.12 -44.81C68.91 -44.74 69.57 -44.7 70.1 -44.7ZM43.34 -58.24C42.89 -56.36 42.18 -54.8 41.2 -53.56C40.22 -52.32 39.05 -51.36 37.7 -50.68C36.35 -50 34.88 -49.57 33.3 -49.38C31.72 -49.19 30.14 -49.18 28.56 -49.33C26.22 -49.55 24.29 -50.12 22.74 -51.02C21.2 -51.92 20 -53.03 19.13 -54.35C18.27 -55.67 17.7 -57.13 17.44 -58.75C17.18 -60.37 17.16 -61.97 17.38 -63.55C17.76 -65.88 18.62 -67.78 19.98 -69.25C21.33 -70.72 22.91 -71.81 24.72 -72.52C26.53 -73.24 28.44 -73.59 30.48 -73.59C32.51 -73.59 34.39 -73.29 36.12 -72.69C37.7 -72.09 38.98 -71.3 39.96 -70.32C40.94 -69.34 41.67 -68.23 42.16 -66.99C42.65 -65.75 42.97 -64.4 43.12 -62.93C43.27 -61.46 43.34 -59.9 43.34 -58.24ZM71.9 -13.55C71.9 -12.04 71.22 -10.89 69.87 -10.1C68.52 -9.31 66.77 -8.77 64.62 -8.47C62.48 -8.16 60.07 -8.01 57.4 -8.01L49.44 -8.01C46.81 -8.01 44.19 -8.09 41.59 -8.24C39 -8.39 36.67 -8.65 34.6 -9.03C32.53 -9.41 30.85 -9.97 29.57 -10.72C28.29 -11.48 27.65 -12.42 27.65 -13.55C27.65 -14.82 28.29 -15.84 29.57 -16.59C30.85 -17.35 32.53 -17.91 34.6 -18.29C36.67 -18.66 39 -18.91 41.59 -19.02C44.19 -19.13 46.81 -19.19 49.44 -19.19C52.07 -19.19 54.73 -19.13 57.4 -19.02C60.07 -18.91 62.48 -18.66 64.62 -18.29C66.77 -17.91 68.52 -17.35 69.87 -16.59C71.22 -15.84 71.9 -14.82 71.9 -13.55Z M116.49 -18.96C115.21 -18.96 113.84 -18.81 112.37 -18.51C110.9 -18.21 109.49 -17.5 108.13 -16.37C107.38 -15.69 106.84 -14.82 106.5 -13.77C106.16 -12.72 106.07 -11.59 106.22 -10.38C106.59 -8.13 107.57 -6.58 109.15 -5.76C109.68 -5.53 110.28 -5.34 110.96 -5.19C111.63 -5.04 112.27 -4.91 112.88 -4.8C113.48 -4.68 114 -4.61 114.46 -4.57L115.13 -4.52L159.72 -4.52C160.92 -4.52 162.16 -4.65 163.44 -4.91C164.72 -5.17 165.7 -5.91 166.38 -7.11C166.75 -7.79 167.04 -8.62 167.23 -9.59C167.41 -10.57 167.45 -11.55 167.34 -12.53C167.23 -13.51 166.94 -14.43 166.49 -15.29C166.04 -16.16 165.4 -16.86 164.57 -17.38C163.07 -18.29 161.07 -18.74 158.59 -18.74L143.58 -18.74L143.58 -18.85L143.58 -21.11L143.58 -24.66C143.58 -25.98 143.56 -27.28 143.52 -28.56C143.48 -29.84 143.43 -30.93 143.35 -31.83C146.74 -32.73 149.82 -34.2 152.61 -36.23C155.47 -38.42 157.69 -40.92 159.27 -43.74C160.85 -46.56 161.64 -49.74 161.64 -53.28C161.64 -55.99 161.24 -58.39 160.45 -60.5C159.66 -62.61 158.63 -64.49 157.35 -66.15L157.69 -66.15C159.57 -66.15 161.17 -66.73 162.48 -67.89C163.8 -69.06 164.46 -70.47 164.46 -72.13C164.46 -73.86 163.8 -75.31 162.48 -76.47C161.17 -77.64 159.57 -78.22 157.69 -78.22L142.11 -78.22L142.11 -82.85C142.11 -84.36 141.47 -85.58 140.19 -86.52C138.91 -87.46 137.33 -87.93 135.45 -87.93C133.64 -87.93 132.1 -87.46 130.82 -86.52C129.54 -85.58 128.9 -84.36 128.9 -82.85L128.9 -78.22L114 -78.22C112.2 -78.22 110.64 -77.64 109.32 -76.47C108 -75.31 107.34 -73.86 107.34 -72.13C107.34 -70.47 108 -69.06 109.32 -67.89C110.64 -66.73 112.2 -66.15 114 -66.15L115.25 -66.15C113.97 -64.49 112.95 -62.61 112.2 -60.5C111.45 -58.39 111.07 -55.99 111.07 -53.28C111.07 -50.79 111.45 -48.5 112.2 -46.39C112.95 -44.28 114 -42.38 115.36 -40.69C116.71 -39 118.31 -37.51 120.16 -36.23C122 -34.95 123.98 -33.86 126.08 -32.96C126.68 -32.66 127.3 -32.41 127.94 -32.23C128.58 -32.04 129.24 -31.87 129.92 -31.72C129.84 -30.82 129.79 -29.71 129.75 -28.39C129.71 -27.07 129.66 -25.77 129.58 -24.49C129.51 -23.21 129.45 -22.05 129.41 -20.99C129.37 -19.94 129.36 -19.19 129.36 -18.74C128.9 -18.74 128 -18.76 126.65 -18.79C125.29 -18.83 123.88 -18.87 122.41 -18.91C120.95 -18.94 119.63 -18.98 118.46 -19.02C117.3 -19.06 116.64 -19.04 116.49 -18.96ZM191.55 -49.33L191.32 -49.33C191.1 -49.33 190.85 -49.35 190.59 -49.38C190.33 -49.42 190.08 -49.44 189.86 -49.44C189.71 -49.51 189.25 -49.55 188.5 -49.55C187.75 -49.55 187.37 -49.59 187.37 -49.67C187.22 -50.04 187.15 -50.46 187.15 -50.91L187.15 -52.15L187.15 -64.34C187.15 -65.17 187.13 -65.98 187.09 -66.77C187.05 -67.56 187.03 -68.37 187.03 -69.19C186.96 -70.55 186.92 -71.9 186.92 -73.26C186.92 -74.61 186.85 -75.89 186.7 -77.09C186.62 -77.4 186.58 -77.66 186.58 -77.88C186.58 -78.11 186.55 -78.34 186.47 -78.56C186.4 -79.84 186.24 -81.06 186.02 -82.23C185.79 -83.4 185.19 -84.51 184.21 -85.56C183.08 -86.69 181.65 -87.25 179.92 -87.25C179.1 -87.25 178.19 -87.12 177.21 -86.86C176.24 -86.59 175.45 -86.2 174.84 -85.67C174.24 -85.07 173.77 -84.3 173.43 -83.36C173.09 -82.42 172.87 -81.52 172.76 -80.65C172.64 -79.78 172.59 -79.03 172.59 -78.39L172.59 -77.32L172.59 -10.27C172.59 -9.07 172.66 -7.69 172.81 -6.15C172.96 -4.61 173.3 -3.12 173.83 -1.69C174.36 -0.26 175.16 0.96 176.26 1.98C177.35 2.99 178.8 3.54 180.6 3.61L180.83 3.61C182.18 3.61 183.42 3.12 184.55 2.14C185.23 1.47 185.74 0.6 186.08 -0.45C186.41 -1.51 186.68 -2.6 186.87 -3.72C187.05 -4.85 187.15 -6 187.15 -7.17L187.15 -10.38L187.15 -11.96C187.3 -15.73 187.3 -19.57 187.15 -23.48C187.15 -25.43 187.13 -27.26 187.09 -28.95C187.05 -30.65 187.07 -32.43 187.15 -34.31C187.15 -34.39 187.17 -34.45 187.2 -34.48C187.24 -34.52 187.26 -34.58 187.26 -34.65L187.26 -34.77L187.37 -34.77C187.45 -34.77 187.52 -34.8 187.6 -34.88C188.8 -34.95 190.27 -34.95 192 -34.88C193.73 -34.8 195.2 -34.84 196.4 -34.99C197.53 -35.22 198.59 -35.71 199.56 -36.46C200.02 -36.84 200.35 -37.36 200.58 -38.04C200.81 -38.72 200.99 -39.36 201.14 -39.96C201.29 -40.48 201.37 -41.01 201.37 -41.54L201.37 -43.12C201.37 -44.25 201.14 -45.26 200.69 -46.17C200.24 -46.99 199.6 -47.61 198.77 -48.03C197.95 -48.44 197.12 -48.72 196.29 -48.88C195.84 -48.95 195.41 -49.01 194.99 -49.04C194.58 -49.08 194.15 -49.14 193.69 -49.21C193.32 -49.21 192.96 -49.25 192.62 -49.33C192.28 -49.4 191.93 -49.4 191.55 -49.33ZM138.5 -44.25C136.92 -43.95 135.34 -43.87 133.76 -44.02C132.18 -44.17 130.75 -44.59 129.47 -45.26C128.19 -45.94 127.15 -46.94 126.36 -48.25C125.57 -49.57 125.18 -51.25 125.18 -53.28C125.18 -55.08 125.5 -56.59 126.14 -57.79C126.78 -59 127.62 -59.96 128.68 -60.67C129.73 -61.39 130.94 -61.89 132.29 -62.19C133.64 -62.5 135.04 -62.61 136.47 -62.53C137.82 -62.53 139.18 -62.34 140.53 -61.97C141.88 -61.59 143.07 -61.05 144.09 -60.33C145.1 -59.62 145.93 -58.68 146.57 -57.51C147.21 -56.34 147.53 -54.93 147.53 -53.28C147.53 -50.42 146.63 -48.31 144.82 -46.96C143.01 -45.6 140.91 -44.7 138.5 -44.25Z M225.19 -38.72C226.01 -37.96 226.88 -37.34 227.78 -36.85C228.69 -36.36 229.66 -35.86 230.72 -35.33C232.6 -34.43 234.56 -33.83 236.59 -33.52C237.11 -33.52 237.62 -33.49 238.11 -33.41C238.6 -33.34 239.15 -33.3 239.75 -33.3C240.2 -33.15 240.67 -33.07 241.16 -33.07L242.57 -33.07C242.95 -32.92 243.3 -32.85 243.64 -32.85L244.6 -32.85L246.63 -32.85C247.01 -33 247.37 -33.07 247.71 -33.07L248.55 -33.07L249.68 -33.07C250.06 -33.07 250.43 -33.15 250.81 -33.3C251.86 -33.52 252.9 -33.73 253.91 -33.92C254.93 -34.11 255.93 -34.35 256.9 -34.65C257.96 -34.88 258.97 -35.22 259.95 -35.67C260.93 -36.12 261.91 -36.65 262.89 -37.25C264.17 -38.15 265.31 -39.09 266.33 -40.07C267.35 -41.05 268.27 -42.18 269.1 -43.46C270.53 -45.94 271.47 -48.65 271.92 -51.58C272.14 -52.04 272.29 -52.56 272.37 -53.16C272.44 -53.77 272.56 -54.37 272.71 -54.97C272.71 -55.42 272.75 -55.93 272.82 -56.49C272.9 -57.06 272.93 -57.57 272.93 -58.02C273.08 -59 273.12 -59.9 273.05 -60.73C272.97 -61.55 272.86 -62.38 272.71 -63.21C272.56 -64.04 272.41 -64.88 272.26 -65.75C272.11 -66.62 271.92 -67.46 271.69 -68.29C271.54 -69.27 271.3 -70.17 270.96 -71C270.62 -71.83 270.22 -72.62 269.77 -73.37C268.95 -74.8 267.85 -76.19 266.5 -77.55C265.97 -78.07 265.43 -78.56 264.86 -79.01C264.3 -79.46 263.79 -79.8 263.34 -80.03C262.06 -80.78 260.78 -81.46 259.5 -82.06C258.75 -82.44 258.01 -82.76 257.3 -83.02C256.59 -83.28 255.81 -83.53 254.99 -83.75C254.76 -83.9 254.48 -84.04 254.14 -84.15C253.8 -84.26 253.44 -84.32 253.07 -84.32C252.69 -84.47 252.33 -84.54 251.99 -84.54C251.66 -84.54 251.34 -84.62 251.04 -84.77C250.43 -84.92 249.78 -85.03 249.06 -85.11C248.35 -85.18 247.69 -85.22 247.08 -85.22C245.81 -85.45 244.49 -85.45 243.13 -85.22C241.18 -85.22 239.32 -85.05 237.55 -84.71C235.78 -84.37 234.14 -83.83 232.64 -83.08C230.91 -82.47 229.38 -81.72 228.07 -80.82C226.75 -79.92 225.49 -78.82 224.28 -77.55C223.08 -76.49 222.05 -75.27 221.18 -73.88C220.31 -72.48 219.51 -71 218.75 -69.42C218.15 -67.76 217.68 -66.09 217.34 -64.4C217 -62.7 216.83 -60.88 216.83 -58.92C216.83 -57.04 216.97 -55.2 217.23 -53.39C217.49 -51.58 218 -49.7 218.75 -47.75C220.03 -43.83 222.18 -40.82 225.19 -38.72ZM297.99 -65.13L297.99 -72.47C297.84 -73.29 297.77 -74.18 297.77 -75.12L297.77 -77.77C297.77 -78.6 297.65 -79.43 297.43 -80.25C297.2 -81.08 296.9 -81.91 296.52 -82.74C296.07 -83.87 295.36 -84.81 294.38 -85.56C293.78 -85.93 293.18 -86.2 292.57 -86.35C291.97 -86.5 291.37 -86.58 290.77 -86.58L289.13 -86.58C288.64 -86.58 288.13 -86.5 287.61 -86.35C287.01 -86.12 286.18 -85.63 285.12 -84.88C284 -83.6 283.32 -81.95 283.09 -79.92C282.87 -78.71 282.73 -77.62 282.7 -76.64C282.66 -75.66 282.64 -74.69 282.64 -73.71L282.87 -6.77L282.87 -5.53C282.87 -5.31 282.9 -5 282.98 -4.63C283.05 -4.25 283.17 -3.88 283.32 -3.5C283.32 -2.97 283.39 -2.48 283.54 -2.03C283.69 -1.58 283.88 -1.09 284.11 -0.56C284.63 0.64 285.2 1.43 285.8 1.81C286.4 2.48 287.34 2.97 288.62 3.27C289.6 3.42 290.54 3.42 291.44 3.27C292.35 3.12 293.14 2.78 293.82 2.26C294.42 2.03 294.87 1.77 295.17 1.47C295.47 1.17 295.77 0.9 296.07 0.68C296.22 0.3 296.37 -0.02 296.52 -0.28C296.67 -0.55 296.82 -0.87 296.98 -1.24C297.5 -1.99 297.77 -2.97 297.77 -4.18C297.92 -4.78 297.99 -5.42 297.99 -6.1L297.99 -8.24C297.99 -9.29 297.95 -10.4 297.88 -11.57C297.8 -12.74 297.84 -13.92 297.99 -15.13L297.99 -27.99C298.14 -29.42 298.22 -30.89 298.22 -32.4L298.22 -37.25L298.22 -55.53L298.22 -60.5C298.22 -62.08 298.14 -63.62 297.99 -65.13ZM273.16 -20.43C272.56 -20.58 271.99 -20.69 271.47 -20.77C270.94 -20.84 270.37 -20.88 269.77 -20.88C269.17 -21.03 268.53 -21.11 267.85 -21.11L265.71 -21.11L223.04 -21.11L222.14 -21.11C221.84 -21.11 221.42 -21.03 220.9 -20.88C220.52 -20.73 220.11 -20.6 219.66 -20.49C219.2 -20.37 218.75 -20.24 218.3 -20.09C217.32 -19.87 216.61 -19.41 216.16 -18.74C215.18 -17.61 214.69 -16.33 214.69 -14.9C214.69 -13.92 214.82 -13.11 215.08 -12.47C215.35 -11.83 215.71 -11.25 216.16 -10.72C216.76 -10.27 217.4 -9.93 218.08 -9.71C218.45 -9.56 218.81 -9.43 219.15 -9.31C219.49 -9.2 219.84 -9.07 220.22 -8.92C220.97 -8.77 221.69 -8.65 222.37 -8.58C223.04 -8.5 223.76 -8.47 224.51 -8.47L236.36 -8.47L239.52 -8.47C240.58 -8.47 241.78 -8.39 243.13 -8.24L251.04 -8.24C252.47 -8.39 253.84 -8.47 255.16 -8.47L259.05 -8.47L269.77 -8.47L270.9 -8.47C271.28 -8.47 271.69 -8.54 272.14 -8.69C272.52 -8.69 272.89 -8.73 273.27 -8.8C273.65 -8.88 274.02 -8.99 274.4 -9.14C275.3 -9.44 276.13 -10.08 276.88 -11.06C277.71 -12.04 278.13 -13.17 278.13 -14.45C278.13 -15.35 277.92 -16.18 277.5 -16.93C277.09 -17.68 276.51 -18.44 275.76 -19.19C275 -19.72 274.14 -20.13 273.16 -20.43ZM231.85 -60.95C232.15 -62.08 232.47 -63.12 232.81 -64.06C233.14 -65 233.61 -65.84 234.22 -66.6C234.82 -67.42 235.5 -68.08 236.25 -68.57C237 -69.06 237.79 -69.49 238.62 -69.87C239.45 -70.24 240.31 -70.51 241.22 -70.66C242.12 -70.81 243.06 -70.89 244.04 -70.89C246.07 -70.89 248.06 -70.66 250.02 -70.21C250.4 -70.06 250.75 -69.91 251.09 -69.76C251.43 -69.61 251.75 -69.42 252.05 -69.19C252.65 -68.97 253.26 -68.67 253.86 -68.29C254.53 -67.84 254.99 -67.35 255.21 -66.82C255.51 -66.67 255.74 -66.46 255.89 -66.2C256.04 -65.94 256.23 -65.69 256.45 -65.47C256.68 -65.09 256.92 -64.66 257.19 -64.17C257.45 -63.68 257.66 -63.17 257.81 -62.65C258.18 -61.37 258.43 -60.16 258.54 -59.03C258.65 -57.91 258.56 -56.7 258.26 -55.42C258.03 -54.59 257.81 -53.8 257.58 -53.05C257.36 -52.3 256.98 -51.51 256.45 -50.68C255.48 -49.1 254.27 -47.97 252.84 -47.29C252.31 -47.07 251.81 -46.84 251.32 -46.62C250.83 -46.39 250.32 -46.28 249.79 -46.28C249.19 -46.13 248.63 -46.05 248.1 -46.05C247.57 -46.05 247.01 -45.98 246.41 -45.83C245.35 -45.83 244.28 -45.9 243.19 -46.05C242.1 -46.2 241.03 -46.47 239.97 -46.84C237.04 -47.97 234.82 -49.7 233.31 -52.04C232.71 -53.16 232.22 -54.63 231.85 -56.44C231.62 -58.02 231.62 -59.52 231.85 -60.95Z"></path></g></svg>