<svg xmlns="http://www.w3.org/2000/svg" version="1.1" xlink="http://www.w3.org/1999/xlink" xmlns:svgjs="http://svgjs.com/svgjs" width="100%" height="100%" viewBox="2.259999990463257 -88.3331069946289 82.73999786376953 91.60310363769531"><g fill="#008129"><path d="M75.97 -46.39C74.39 -46.47 72.5 -46.5 70.32 -46.5L63.44 -46.5C61.03 -46.5 58.62 -46.49 56.21 -46.45C53.8 -46.41 51.55 -46.39 49.44 -46.39L49.44 -49.1C49.44 -50.08 49.4 -50.98 49.33 -51.81C50.38 -51.81 51.43 -51.83 52.49 -51.87C53.54 -51.9 54.71 -51.92 55.99 -51.92C57.19 -51.92 58.23 -51.9 59.09 -51.87C59.96 -51.83 60.76 -51.81 61.52 -51.81L63.94 -51.81C64.81 -51.81 65.84 -51.85 67.05 -51.92L70.1 -51.92C71.22 -51.92 72.35 -52 73.48 -52.15C74.61 -52.3 75.66 -52.58 76.64 -53C77.62 -53.41 78.41 -54.03 79.01 -54.86C79.61 -55.76 80.07 -56.55 80.37 -57.23C80.67 -57.91 80.89 -58.77 81.04 -59.82C81.35 -63.29 81.44 -67.01 81.33 -71C81.21 -74.99 81.2 -78.67 81.27 -82.06C81.35 -84.77 80.59 -86.58 79.01 -87.48C77.43 -88.38 75.33 -88.57 72.69 -88.04C71.34 -87.74 70.4 -87.05 69.87 -85.95C69.35 -84.86 69.04 -83.64 68.97 -82.29L68.97 -80.48C68.97 -79.88 68.89 -79.28 68.74 -78.67L67.05 -78.34C66.67 -78.26 66.07 -78.26 65.24 -78.34C64.87 -78.41 64.34 -78.45 63.66 -78.45L32.51 -78.45C30.7 -78.45 28.91 -78.39 27.15 -78.28C25.38 -78.17 23.63 -78.19 21.9 -78.34C21.52 -78.41 21.03 -78.43 20.43 -78.39C19.83 -78.35 19.45 -78.52 19.3 -78.9C19 -79.58 18.91 -80.35 19.02 -81.21C19.13 -82.08 19.11 -82.85 18.96 -83.53C18.81 -84.43 18.46 -85.2 17.89 -85.84C17.33 -86.48 16.65 -86.97 15.86 -87.31C15.07 -87.65 14.22 -87.87 13.32 -87.99C12.42 -88.1 11.59 -88.12 10.84 -88.04C9.18 -87.82 8 -87.01 7.28 -85.62C6.57 -84.22 6.21 -82.81 6.21 -81.38L6.21 -63.32C6.21 -63.25 6.25 -62.84 6.32 -62.08C6.4 -61.33 6.55 -60.44 6.77 -59.43C7 -58.41 7.36 -57.4 7.84 -56.38C8.33 -55.37 8.99 -54.52 9.82 -53.84C11.1 -52.86 12.55 -52.26 14.17 -52.04C15.78 -51.81 17.38 -51.7 18.96 -51.7C22.5 -51.77 26.07 -51.77 29.69 -51.7L31.55 -51.7C32.19 -51.7 32.81 -51.73 33.41 -51.81L33.41 -46.39C31.53 -46.39 29.91 -46.41 28.56 -46.45C27.2 -46.49 25.9 -46.5 24.66 -46.5L20.83 -46.5C19.51 -46.5 17.95 -46.47 16.14 -46.39C14.41 -46.32 12.72 -46.3 11.06 -46.34C9.41 -46.37 7.79 -46.13 6.21 -45.6C5 -45.23 4.04 -44.49 3.33 -43.4C2.61 -42.31 2.26 -41.24 2.26 -40.18C2.26 -38.53 3.12 -37.06 4.85 -35.78C6.13 -34.73 7.69 -34.16 9.54 -34.09C11.38 -34.01 13.17 -34.01 14.9 -34.09L75.06 -34.2L76.13 -34.2C76.77 -34.2 77.55 -34.26 78.45 -34.37C79.35 -34.48 80.27 -34.67 81.21 -34.94C82.15 -35.2 82.93 -35.63 83.53 -36.23C83.98 -36.61 84.34 -37.25 84.6 -38.15C84.86 -39.05 85 -39.88 85 -40.64C85 -42.14 84.47 -43.31 83.42 -44.13C82.36 -44.96 81.18 -45.53 79.86 -45.83C78.54 -46.13 77.24 -46.32 75.97 -46.39ZM7.9 2.03C8.73 2.63 9.71 2.93 10.84 2.93C11.96 2.93 13.02 2.97 14 3.05L72.8 3.27C73.63 3.27 74.48 3.24 75.34 3.16C76.21 3.09 77.06 2.9 77.88 2.6C78.79 2.3 79.39 1.82 79.69 1.19C79.99 0.55 80.25 -0.19 80.48 -1.02C80.85 -2.37 81.12 -3.88 81.27 -5.53C81.42 -7.19 81.53 -8.86 81.61 -10.55C81.68 -12.25 81.7 -13.92 81.67 -15.58C81.63 -17.23 81.57 -18.7 81.5 -19.98C81.35 -21.48 81.03 -22.78 80.54 -23.87C80.05 -24.96 79.05 -25.81 77.55 -26.41C76.19 -27.01 74.76 -27.39 73.26 -27.54C71.75 -27.69 70.28 -27.81 68.85 -27.88L15.69 -27.88C13.58 -27.88 11.48 -27.47 9.37 -26.64C8.24 -26.19 7.41 -25.6 6.89 -24.89C6.36 -24.17 5.98 -23.21 5.76 -22.01C5.38 -20.13 5.19 -18.4 5.19 -16.82L5.19 -11.51C5.19 -10.23 5.25 -8.92 5.36 -7.56C5.47 -6.21 5.57 -4.85 5.64 -3.5C5.64 -2.67 5.78 -1.73 6.04 -0.68C6.3 0.38 6.81 1.2 7.56 1.81C7.71 1.96 7.83 2.03 7.9 2.03ZM18.62 -10.84C18.62 -11.06 18.64 -11.25 18.68 -11.4C18.72 -11.55 18.7 -11.7 18.62 -11.85L18.62 -13.26C18.62 -13.75 18.7 -14.26 18.85 -14.79C19 -15.46 19.25 -15.82 19.58 -15.86C19.92 -15.9 20.39 -15.92 20.99 -15.92C22.65 -15.99 24.27 -16.05 25.85 -16.08C27.43 -16.12 29.05 -16.07 30.7 -15.92L62.08 -15.92C62.83 -15.99 63.68 -16.01 64.62 -15.97C65.56 -15.93 66.3 -15.61 66.82 -15.01C67.27 -14.41 67.5 -13.71 67.5 -12.92C67.5 -12.13 67.46 -11.44 67.39 -10.84C67.31 -10.16 67.2 -9.63 67.05 -9.26C66.9 -8.88 66.45 -8.65 65.69 -8.58C64.94 -8.43 64.11 -8.35 63.21 -8.35C62.31 -8.35 61.44 -8.39 60.61 -8.47C59.64 -8.54 58.62 -8.62 57.57 -8.69L22.24 -8.69C21.71 -8.62 21.26 -8.58 20.88 -8.58C20.51 -8.58 20.15 -8.6 19.81 -8.63C19.47 -8.67 19.23 -8.77 19.08 -8.92C18.85 -9.07 18.72 -9.33 18.68 -9.71C18.64 -10.08 18.62 -10.46 18.62 -10.84ZM19.3 -64C19.23 -64.23 19.17 -64.36 19.13 -64.4C19.09 -64.43 19.08 -64.64 19.08 -65.02C19.08 -66.15 19.51 -66.94 20.37 -67.39C21.24 -67.84 22.27 -68.1 23.48 -68.18C24.68 -68.25 25.92 -68.23 27.2 -68.12C28.48 -68.01 29.46 -67.95 30.14 -67.95L33.07 -67.95C34.8 -67.95 36.68 -67.93 38.72 -67.89C40.75 -67.86 42.63 -67.84 44.36 -67.84L47.29 -67.84L64.23 -67.84C64.98 -67.91 65.69 -67.91 66.37 -67.84C67.05 -67.76 67.69 -67.42 68.29 -66.82C68.74 -66.3 68.93 -65.81 68.85 -65.35C68.78 -64.9 68.74 -64.38 68.74 -63.77C68.74 -63.17 68.59 -62.72 68.29 -62.42C67.99 -62.12 67.61 -61.95 67.16 -61.91C66.71 -61.87 66.22 -61.87 65.69 -61.91C65.17 -61.95 64.72 -62.01 64.34 -62.08C63.74 -62.08 63.12 -62.06 62.48 -62.03C61.84 -61.99 61.22 -62.04 60.61 -62.19C60.01 -62.27 59.43 -62.27 58.86 -62.19C58.3 -62.12 57.72 -62.08 57.12 -62.08C56.29 -62.08 55.5 -62.1 54.74 -62.14C53.99 -62.18 53.24 -62.16 52.49 -62.08C51.06 -62.08 49.8 -62.06 48.71 -62.03C47.61 -61.99 46.56 -61.97 45.55 -61.97L42.44 -61.97L38.72 -61.97C36.68 -61.97 34.63 -61.99 32.56 -62.03C30.5 -62.06 28.41 -62.08 26.3 -62.08C25.85 -62.08 25.25 -62.06 24.49 -62.03C23.74 -61.99 23.01 -62.01 22.29 -62.08C21.58 -62.16 20.94 -62.33 20.37 -62.59C19.81 -62.85 19.45 -63.32 19.3 -64Z"></path></g></svg>